<svg width="24" height="25" viewBox="0 0 24 25" fill="none" xmlns="http://www.w3.org/2000/svg">
<path d="M3 18.1562V12.1562C3 9.7693 3.94821 7.48012 5.63604 5.79229C7.32387 4.10446 9.61305 3.15625 12 3.15625C14.3869 3.15625 16.6761 4.10446 18.364 5.79229C20.0518 7.48012 21 9.7693 21 12.1562V18.1562" stroke="#1A1A1A" stroke-width="1.5" stroke-linecap="round" stroke-linejoin="round"/>
<path d="M21 19.1562C21 19.6867 20.7893 20.1954 20.4142 20.5705C20.0391 20.9455 19.5304 21.1562 19 21.1562H18C17.4696 21.1562 16.9609 20.9455 16.5858 20.5705C16.2107 20.1954 16 19.6867 16 19.1562V16.1562C16 15.6258 16.2107 15.1171 16.5858 14.742C16.9609 14.367 17.4696 14.1562 18 14.1562H21V19.1562ZM3 19.1562C3 19.6867 3.21071 20.1954 3.58579 20.5705C3.96086 20.9455 4.46957 21.1562 5 21.1562H6C6.53043 21.1562 7.03914 20.9455 7.41421 20.5705C7.78929 20.1954 8 19.6867 8 19.1562V16.1562C8 15.6258 7.78929 15.1171 7.41421 14.742C7.03914 14.367 6.53043 14.1562 6 14.1562H3V19.1562Z" stroke="black" stroke-width="1.5" stroke-linecap="round" stroke-linejoin="round"/>
</svg>
