<svg width="26" height="26" viewBox="0 0 26 26" fill="none" xmlns="http://www.w3.org/2000/svg">
<path d="M13 0C5.82699 0 0 5.82699 0 13C0 20.173 5.82699 26 13 26C20.173 26 26 20.173 26 13C26 5.82699 20.173 0 13 0ZM13 1.13043C19.5621 1.13043 24.8696 6.43793 24.8696 13C24.8696 19.5621 19.5621 24.8696 13 24.8696C6.43793 24.8696 1.13043 19.5621 1.13043 13C1.13043 6.43793 6.43793 1.13043 13 1.13043ZM13 5.08696C12.5503 5.08696 12.119 5.2656 11.801 5.5836C11.483 5.9016 11.3043 6.33289 11.3043 6.78261C11.3043 7.23232 11.483 7.66362 11.801 7.98162C12.119 8.29961 12.5503 8.47826 13 8.47826C13.4497 8.47826 13.881 8.29961 14.199 7.98162C14.517 7.66362 14.6957 7.23232 14.6957 6.78261C14.6957 6.33289 14.517 5.9016 14.199 5.5836C13.881 5.2656 13.4497 5.08696 13 5.08696ZM10.7391 10.7391V11.8696H11.3043H11.8696V19.2174H11.3043H10.7391V20.3478H11.3043H11.8696H14.1304H14.6957H15.2609V19.2174H14.6957H14.1304V10.7391H13.5652H11.3043H10.7391Z" fill="#A0A3BD"/>
</svg>
