<svg width="24" height="25" viewBox="0 0 24 25" fill="none" xmlns="http://www.w3.org/2000/svg">
<path opacity="0.4" d="M2 6.60325C2 4.15225 4.03024 2.15625 6.52453 2.15625H11.4856C13.9748 2.15625 16 4.14625 16 6.59325V17.7093C16 20.1613 13.9698 22.1562 11.4744 22.1562H6.51537C4.02515 22.1562 2 20.1662 2 17.7192V16.7793V6.60325Z" stroke="#C72B2B"/>
<path d="M21.7792 11.6103L18.9334 8.70131C18.6393 8.40131 18.166 8.40131 17.8728 8.70331C17.5807 9.00531 17.5816 9.49231 17.8748 9.79231L19.434 11.3853H17.9391H9.54875C9.13483 11.3853 8.79883 11.7303 8.79883 12.1553C8.79883 12.5813 9.13483 12.9253 9.54875 12.9253H19.434L17.8748 14.5183C17.5816 14.8183 17.5807 15.3053 17.8728 15.6073C18.0199 15.7583 18.2118 15.8343 18.4046 15.8343C18.5955 15.8343 18.7873 15.7583 18.9334 15.6093L21.7792 12.7013C21.9204 12.5563 22.0003 12.3603 22.0003 12.1553C22.0003 11.9513 21.9204 11.7553 21.7792 11.6103Z" fill="#CC5F5F"/>
</svg>
