<svg width="18" height="18" viewBox="0 0 18 18" fill="none" xmlns="http://www.w3.org/2000/svg">
<path d="M15.7651 2.62846C15.4177 2.27333 14.9034 2.14199 14.4239 2.28098L3.24201 5.51183C2.73608 5.65221 2.37749 6.0532 2.28089 6.56191C2.1822 7.08035 2.5269 7.73917 2.97723 8.01437L6.47356 10.1493C6.83216 10.3689 7.295 10.314 7.59175 10.0165L11.5954 6.0129C11.7969 5.80371 12.1305 5.80371 12.3321 6.0129C12.5336 6.21374 12.5336 6.54106 12.3321 6.74955L8.32145 10.7532C8.02401 11.0506 7.96842 11.5121 8.18733 11.8714L10.3236 15.3809C10.5738 15.7972 11.0047 16.0342 11.4773 16.0342C11.5329 16.0342 11.5954 16.0342 11.651 16.0265C12.1931 15.9577 12.6239 15.5887 12.7838 15.0675L16.0987 3.96972C16.2447 3.49715 16.1126 2.98288 15.7651 2.62846Z" fill="#0037DC"/>
<path opacity="0.4" fill-rule="evenodd" clip-rule="evenodd" d="M2.96636 12.5223C2.83292 12.5223 2.69949 12.4716 2.59803 12.3694C2.39441 12.1658 2.39441 11.8364 2.59803 11.6328L3.54665 10.6834C3.75027 10.4805 4.08037 10.4805 4.284 10.6834C4.48692 10.8871 4.48692 11.2172 4.284 11.4208L3.33468 12.3694C3.23322 12.4716 3.09979 12.5223 2.96636 12.5223ZM5.58018 13.3497C5.44675 13.3497 5.31332 13.299 5.21185 13.1968C5.00823 12.9932 5.00823 12.6638 5.21185 12.4602L6.16047 11.5109C6.36409 11.308 6.6942 11.308 6.89782 11.5109C7.10075 11.7145 7.10075 12.0446 6.89782 12.2482L5.94851 13.1968C5.84705 13.299 5.71361 13.3497 5.58018 13.3497ZM5.75669 15.829C5.85815 15.9312 5.99159 15.9819 6.12502 15.9819C6.25845 15.9819 6.39188 15.9312 6.49334 15.829L7.44266 14.8804C7.64558 14.6768 7.64558 14.3467 7.44266 14.143C7.23903 13.9401 6.90893 13.9401 6.70531 14.143L5.75669 15.0923C5.55307 15.296 5.55307 15.6254 5.75669 15.829Z" fill="#1C1D22"/>
</svg>
