<svg width="42" height="43" viewBox="0 0 42 43" fill="none" xmlns="http://www.w3.org/2000/svg">
<path fill-rule="evenodd" clip-rule="evenodd" d="M20.998 5.4375C21.9645 5.4375 22.748 6.221 22.748 7.1875V19.4375H34.998C35.9645 19.4375 36.748 20.221 36.748 21.1875C36.748 22.154 35.9645 22.9375 34.998 22.9375H22.748V35.1875C22.748 36.154 21.9645 36.9375 20.998 36.9375C20.0315 36.9375 19.248 36.154 19.248 35.1875V22.9375H6.99805C6.03155 22.9375 5.24805 22.154 5.24805 21.1875C5.24805 20.221 6.03155 19.4375 6.99805 19.4375H19.248V7.1875C19.248 6.221 20.0315 5.4375 20.998 5.4375Z" fill="#312E81"/>
</svg>
