<svg width="22" height="22" viewBox="0 0 22 22" fill="none" xmlns="http://www.w3.org/2000/svg">
<path fill-rule="evenodd" clip-rule="evenodd" d="M2.17644 6.24913C2.98807 5.28419 4.37958 4.8125 6.41737 4.8125H15.584C17.6218 4.8125 19.0133 5.28419 19.825 6.24913C20.6287 7.20469 20.7052 8.46006 20.5763 9.63061L19.8885 16.9674C19.7875 17.9098 19.551 18.943 18.7095 19.7117C17.8743 20.4748 16.5803 20.8542 14.6674 20.8542H7.33403C5.42109 20.8542 4.1271 20.4748 3.29189 19.7117C2.45045 18.943 2.21392 17.9098 2.11295 16.9674L2.11198 16.9583L1.42506 9.63063C1.29624 8.46008 1.37269 7.2047 2.17644 6.24913ZM3.22871 7.13421C2.79629 7.6483 2.67457 8.42076 2.79236 9.48522L2.79363 9.49665L3.4806 16.8254C3.57231 17.6773 3.76216 18.279 4.21931 18.6966C4.68347 19.1206 5.56198 19.4792 7.33403 19.4792H14.6674C16.4394 19.4792 17.3179 19.1206 17.7821 18.6966C18.2392 18.279 18.4291 17.6773 18.5208 16.8254L19.2089 9.48521C19.3267 8.42075 19.2051 7.6483 18.7727 7.13421C18.3468 6.62789 17.4604 6.1875 15.584 6.1875H6.41737C4.54098 6.1875 3.65458 6.62789 3.22871 7.13421Z" fill="#1A1A1A"/>
<path fill-rule="evenodd" clip-rule="evenodd" d="M8.06153 3.71545C8.02259 4.01372 8.02149 4.35269 8.02149 4.76927V5.5026C8.02149 5.8823 7.71368 6.1901 7.33399 6.1901C6.95429 6.1901 6.64649 5.8823 6.64649 5.5026L6.64649 4.74545C6.64646 4.35721 6.64644 3.93317 6.69811 3.53744C6.75164 3.12742 6.86635 2.69211 7.13509 2.30328C7.70043 1.4853 8.73604 1.14844 10.2673 1.14844H11.734C13.2653 1.14844 14.3009 1.4853 14.8662 2.30328C15.135 2.69211 15.2497 3.12742 15.3032 3.53744C15.3549 3.93317 15.3548 4.35722 15.3548 4.74545L15.3548 5.5026C15.3548 5.8823 15.047 6.1901 14.6673 6.1901C14.2876 6.1901 13.9798 5.8823 13.9798 5.5026V4.76927C13.9798 4.35269 13.9787 4.01372 13.9398 3.71545C13.9016 3.42336 13.833 3.22674 13.7351 3.08505C13.5671 2.84199 13.136 2.52344 11.734 2.52344H10.2673C8.86527 2.52344 8.43421 2.84199 8.26622 3.08505C8.16829 3.22674 8.09967 3.42336 8.06153 3.71545Z" fill="#1A1A1A"/>
<path fill-rule="evenodd" clip-rule="evenodd" d="M9.85621 11.6882C9.85549 11.7537 9.85548 11.8283 9.85548 11.9167V12.8608C9.85548 13.1189 9.85773 13.3087 9.88014 13.4698C9.90169 13.6246 9.93591 13.7 9.96492 13.7409C9.99727 13.7865 10.1585 13.9792 11.0013 13.9792C11.8479 13.9792 12.0072 13.7847 12.0389 13.7395C12.0681 13.6978 12.1022 13.6213 12.1234 13.4646C12.1455 13.3017 12.1471 13.111 12.1471 12.8517V11.9167C12.1471 11.8283 12.1471 11.7537 12.1464 11.6882C12.081 11.6875 12.0064 11.6875 11.918 11.6875H10.0846C9.99623 11.6875 9.92164 11.6875 9.85621 11.6882ZM10.0545 10.3125C10.0646 10.3125 10.0746 10.3125 10.0846 10.3125H11.918C11.928 10.3125 11.938 10.3125 11.9481 10.3125C12.1508 10.3125 12.3562 10.3124 12.5238 10.331C12.6947 10.35 12.9785 10.4008 13.2062 10.6285C13.4339 10.8561 13.4846 11.1399 13.5036 11.3108C13.5222 11.4784 13.5222 11.6839 13.5221 11.8866C13.5221 11.8966 13.5221 11.9066 13.5221 11.9167V12.862C13.5222 13.1 13.5222 13.3817 13.486 13.649C13.4485 13.9263 13.3663 14.241 13.1652 14.5283C12.7362 15.1407 11.9789 15.3542 11.0013 15.3542C10.0291 15.3542 9.27369 15.1435 8.84312 14.536C8.64067 14.2504 8.55687 13.9367 8.51826 13.6593C8.48052 13.3881 8.48048 13.1024 8.48048 12.8608V11.9167C8.48048 11.9066 8.48048 11.8966 8.48047 11.8866C8.48043 11.6839 8.48038 11.4784 8.49901 11.3108C8.51799 11.1399 8.56875 10.8561 8.79643 10.6285C9.0241 10.4008 9.30791 10.35 9.47878 10.331C9.6464 10.3124 9.85182 10.3125 10.0545 10.3125Z" fill="#1A1A1A"/>
<path fill-rule="evenodd" clip-rule="evenodd" d="M20.4026 9.68162C20.6259 9.98869 20.558 10.4187 20.2509 10.642C18.0361 12.2528 15.5057 13.2108 12.92 13.5364C12.5432 13.5839 12.1994 13.3169 12.1519 12.9402C12.1045 12.5635 12.3714 12.2196 12.7482 12.1722C15.1124 11.8745 17.422 10.9992 19.4422 9.52998C19.7493 9.30665 20.1792 9.37454 20.4026 9.68162Z" fill="#1A1A1A"/>
<path fill-rule="evenodd" clip-rule="evenodd" d="M1.83507 9.94769C2.04953 9.63436 2.47739 9.55421 2.79072 9.76867C4.76054 11.1169 6.98184 11.9295 9.24391 12.1828C9.62125 12.225 9.89289 12.5652 9.85064 12.9425C9.80839 13.3198 9.46825 13.5915 9.09091 13.5492C6.60464 13.2708 4.16928 12.3784 2.0141 10.9033C1.70077 10.6889 1.62061 10.261 1.83507 9.94769Z" fill="#1A1A1A"/>
</svg>
