<svg width="25" height="25" viewBox="0 0 25 25" fill="none" xmlns="http://www.w3.org/2000/svg">
<path d="M4.37995 0.319824C2.14443 0.319824 0.319946 2.14431 0.319946 4.37982V20.6198C0.319946 22.8553 2.14443 24.6798 4.37995 24.6798H20.6199C22.8555 24.6798 24.6799 22.8553 24.6799 20.6198V4.37982C24.6799 2.14431 22.8555 0.319824 20.6199 0.319824H4.37995ZM4.37995 1.47982H20.6199C22.2287 1.47982 23.5199 2.7711 23.5199 4.37982V20.6198C23.5199 22.2285 22.2287 23.5198 20.6199 23.5198H4.37995C2.77122 23.5198 1.47995 22.2285 1.47995 20.6198V4.37982C1.47995 2.7711 2.77122 1.47982 4.37995 1.47982ZM5.58979 5.53982L10.9389 13.1399L5.53995 19.4598H6.98995L11.5937 14.0699L15.3864 19.4598H19.9901L14.1176 11.1155L18.8799 5.53982H17.4299L13.4628 10.1855L10.1935 5.53982H5.58979ZM7.8101 6.69982H9.58749L17.7698 18.2998H15.9924L7.8101 6.69982Z" fill="#A0A3BD"/>
</svg>
